<svg width="410" height="446" viewBox="0 0 410 446" fill="none" xmlns="http://www.w3.org/2000/svg">
<path fill-rule="evenodd" clip-rule="evenodd" d="M324.722 428.724C351.758 439.923 380.736 445.687 410 445.687L410 334.265C395.368 334.265 380.879 331.383 367.361 325.783C353.843 320.184 341.56 311.977 331.213 301.63C320.867 291.284 312.659 279.001 307.06 265.482C301.46 251.964 298.578 237.475 298.578 222.843L187.156 222.843C187.156 252.107 192.92 281.085 204.119 308.122C215.318 335.158 231.733 359.724 252.426 380.417C273.119 401.11 297.685 417.525 324.722 428.724Z" fill="#977C53"/>
<path fill-rule="evenodd" clip-rule="evenodd" d="M204.119 137.565C192.92 164.602 187.156 193.58 187.156 222.844L298.578 222.844C298.578 208.212 301.46 193.723 307.059 180.205C312.659 166.686 320.866 154.403 331.213 144.057C341.559 133.71 353.842 125.503 367.361 119.904C380.879 114.304 395.368 111.422 410 111.422L410 1.52588e-05C380.736 1.14212e-05 351.758 5.76404 324.721 16.963C297.685 28.162 273.118 44.5765 252.425 65.2695C231.732 85.9625 215.318 110.529 204.119 137.565Z" fill="#977C53"/>
<path fill-rule="evenodd" clip-rule="evenodd" d="M85.2789 239.809C58.2422 228.61 29.2645 222.846 0.000178883 222.846L0.000173365 334.268C14.6323 334.268 29.1212 337.15 42.6395 342.75C56.1579 348.349 68.441 356.557 78.7875 366.903C89.134 377.25 97.3412 389.533 102.941 403.051C108.54 416.569 111.422 431.058 111.422 445.69L222.844 445.69C222.844 416.426 217.08 387.448 205.881 360.412C194.682 333.375 178.268 308.809 157.575 288.116C136.882 267.423 112.316 251.008 85.2789 239.809Z" fill="#977C53"/>
<path fill-rule="evenodd" clip-rule="evenodd" d="M205.881 85.28C217.08 58.2433 222.844 29.2655 222.844 0.00122336L111.422 0.00120677C111.422 14.6334 108.54 29.1222 102.941 42.6406C97.3411 56.1589 89.1338 68.442 78.7873 78.7885C68.4408 89.135 56.1577 97.3423 42.6394 102.942C29.121 108.541 14.6322 111.423 6.1991e-06 111.423L0 222.845C29.2643 222.845 58.242 217.081 85.2787 205.882C112.315 194.683 136.882 178.269 157.575 157.576C178.268 136.883 194.682 112.317 205.881 85.28Z" fill="#977C53"/>
</svg>
