<svg width="160" height="38" viewBox="0 0 160 38" fill="none" xmlns="http://www.w3.org/2000/svg">
<path d="M91.6123 32.2634L96.0644 20.5767H97.3629L101.815 32.2634H100.238L99.1252 29.3881H94.3021L93.1891 32.2634H91.6123ZM94.7659 28.0896H98.6615L96.7137 22.9882L94.7659 28.0896Z" fill="white"/>
<path d="M80.3804 32.2634L80.3804 30.9649H81.0296C81.2337 30.798 81.4377 30.6125 81.6047 30.3898C81.9015 30.0003 82.2354 29.4438 82.3282 28.6461L83.2557 20.5767H89.9339V30.9649H91.2324V32.2634H89.8411H81.7717H80.3804ZM82.8847 30.9649H88.4498V21.8752H84.6099L83.8122 28.6461C83.7195 29.4438 83.4783 30.0003 83.2742 30.3898C83.1444 30.6125 83.0145 30.798 82.8847 30.9649Z" fill="white"/>
<path d="M71.8467 32.2634V20.5767H79.2669V21.8752H73.3307V25.5853H78.8031V26.8838H73.3307V30.9649H79.4524V32.2634H71.8467Z" fill="white"/>
<path d="M61.9194 32.2634V20.5767H65.9078C67.9298 20.5767 69.6179 22.2462 69.6179 24.194C69.6179 26.1418 67.9298 27.8113 65.9078 27.8113H63.4035V32.2634H61.9194ZM63.4035 26.5128H65.9078C67.1136 26.5128 68.1338 25.4925 68.1338 24.194C68.1338 22.8955 67.1136 21.8752 65.9078 21.8752H63.4035V26.5128Z" fill="white"/>
<path d="M58.3041 28.3678H59.8809C59.2316 30.5939 57.4693 32.3562 54.8723 32.3562C51.997 32.3562 49.3999 29.7591 49.3999 26.42C49.3999 23.0809 51.997 20.4839 54.8723 20.4839C57.3766 20.4839 59.1389 22.2462 59.7882 24.4722H58.2114C57.8218 22.9882 56.6531 21.7824 54.8723 21.7824C52.8317 21.7824 50.8839 23.7302 50.8839 26.42C50.8839 29.1098 52.8317 31.0576 54.8723 31.0576C56.7459 31.0576 57.9146 29.8519 58.3041 28.3678Z" fill="white"/>
<path d="M151.244 17.4231L154.212 12.5072C153.729 12.3588 153.303 12.1362 152.913 11.8394C152.264 11.3386 151.615 10.5223 151.615 9.16816C151.615 7.31312 153.191 5.73633 155.139 5.73633H159.499V17.4231H158.015V12.6H155.807L152.913 17.4231H151.244ZM155.139 11.3015H158.015V7.03486H155.139C154.008 7.03486 153.099 7.98093 153.099 9.16816C153.099 10.3554 154.008 11.3015 155.139 11.3015Z" fill="white"/>
<path d="M140.488 17.4231L144.94 5.73633H146.239L150.691 17.4231H149.114L148.001 14.5478H143.178L142.065 17.4231H140.488ZM143.642 13.2493H147.537L145.59 8.14789L143.642 13.2493Z" fill="white"/>
<path d="M130.378 17.4231V5.73633H131.862V10.8377H137.52V5.73633H139.004V17.4231H137.52V12.1362H131.862V17.4231H130.378Z" fill="white"/>
<path d="M123.603 17.4231V7.03486H120.078V5.73633H128.611V7.03486H125.087V17.4231H123.603Z" fill="white"/>
<path d="M111.357 17.4231V5.73633H115.345C117.367 5.73633 119.055 7.40587 119.055 9.35367C119.055 11.3015 117.367 12.971 115.345 12.971H112.841V17.4231H111.357ZM112.841 11.6725H115.345C116.551 11.6725 117.571 10.6522 117.571 9.35367C117.571 8.05514 116.551 7.03486 115.345 7.03486H112.841V11.6725Z" fill="white"/>
<path d="M103.748 6.94209C101.708 6.94209 99.7599 8.88988 99.7599 11.5797C99.7599 14.2695 101.708 16.2173 103.748 16.2173C105.789 16.2173 107.737 14.2695 107.737 11.5797C107.737 8.88988 105.789 6.94209 103.748 6.94209ZM103.748 5.64355C106.624 5.64355 109.221 8.24062 109.221 11.5797C109.221 14.9188 106.624 17.5158 103.748 17.5158C100.873 17.5158 98.2759 14.9188 98.2759 11.5797C98.2759 8.24062 100.873 5.64355 103.748 5.64355Z" fill="white"/>
<path d="M90.2112 17.5159V15.9391C86.8721 15.735 85.0171 13.9171 85.0171 11.3942C85.0171 8.87135 86.8721 7.05341 90.2112 6.84936V5.73633H91.6953V6.84936C95.0343 7.05341 96.8894 8.87135 96.8894 11.3942C96.8894 13.9171 95.0343 15.735 91.6953 15.9391V17.5159H90.2112ZM90.2112 14.6405V8.14789C87.8924 8.24064 86.5011 9.61337 86.5011 11.3942C86.5011 13.1751 87.8924 14.5478 90.2112 14.6405ZM91.6953 8.14789V14.6405C94.0141 14.5478 95.4053 13.1751 95.4053 11.3942C95.4053 9.61337 94.0141 8.24064 91.6953 8.14789Z" fill="white"/>
<path d="M71.6655 17.4231V5.73633H72.8713L77.2307 15.1043L81.59 5.73633H82.7958V17.4231H81.3118V9.53917L77.6944 17.4231H76.7669L73.1496 9.53917V17.4231H71.6655Z" fill="white"/>
<path d="M64.0569 6.94209C62.0163 6.94209 60.0685 8.88988 60.0685 11.5797C60.0685 14.2695 62.0163 16.2173 64.0569 16.2173C66.0974 16.2173 68.0452 14.2695 68.0452 11.5797C68.0452 8.88988 66.0974 6.94209 64.0569 6.94209ZM64.0569 5.64355C66.9322 5.64355 69.5292 8.24062 69.5292 11.5797C69.5292 14.9188 66.9322 17.5158 64.0569 17.5158C61.1815 17.5158 58.5845 14.9188 58.5845 11.5797C58.5845 8.24062 61.1815 5.64355 64.0569 5.64355Z" fill="white"/>
<path d="M50.2349 17.4231V5.73633H51.7189V11.487L56.2638 5.73633H58.0261L53.4812 11.487L58.3971 17.4231H56.6348L51.7189 11.487V17.4231H50.2349Z" fill="white"/>
<path fill-rule="evenodd" clip-rule="evenodd" d="M27.686 36.5537C29.9912 37.5086 32.4619 38 34.957 38V28.5C33.7095 28.5 32.4741 28.2543 31.3215 27.7769C30.1689 27.2994 29.1217 26.5997 28.2395 25.7175C27.3574 24.8354 26.6576 23.7881 26.1802 22.6355C25.7028 21.4829 25.457 20.2476 25.457 19L15.957 19C15.957 21.4951 16.4485 23.9658 17.4033 26.271C18.3582 28.5762 19.7577 30.6707 21.522 32.435C23.2863 34.1993 25.3809 35.5989 27.686 36.5537Z" fill="white"/>
<path fill-rule="evenodd" clip-rule="evenodd" d="M17.4033 11.729C16.4485 14.0342 15.957 16.5049 15.957 19L25.457 19C25.457 17.7524 25.7028 16.5171 26.1802 15.3645C26.6576 14.2119 27.3574 13.1646 28.2395 12.2825C29.1217 11.4003 30.1689 10.7006 31.3215 10.2231C32.4741 9.74572 33.7095 9.5 34.957 9.5L34.957 0C32.4619 -3.27194e-07 29.9912 0.491449 27.686 1.44629C25.3809 2.40113 23.2863 3.80066 21.522 5.56497C19.7577 7.32928 18.3582 9.42383 17.4033 11.729Z" fill="white"/>
<path fill-rule="evenodd" clip-rule="evenodd" d="M7.27099 20.4463C4.9658 19.4915 2.49512 19 -1.66103e-06 19L-8.30517e-07 28.5C1.24756 28.5 2.4829 28.7457 3.63549 29.2231C4.78809 29.7006 5.83536 30.4003 6.71752 31.2825C7.59967 32.1646 8.29944 33.2119 8.77686 34.3645C9.25428 35.5171 9.5 36.7524 9.5 38L19 38C19 35.5049 18.5086 33.0342 17.5537 30.729C16.5989 28.4238 15.1993 26.3293 13.435 24.565C11.6707 22.8007 9.57617 21.4011 7.27099 20.4463Z" fill="white"/>
<path fill-rule="evenodd" clip-rule="evenodd" d="M17.5537 7.27099C18.5086 4.9658 19 2.49512 19 2.26573e-07L9.5 1.13286e-07C9.5 1.24756 9.25428 2.4829 8.77686 3.63549C8.29944 4.78809 7.59967 5.83536 6.71752 6.71752C5.83536 7.59967 4.78809 8.29944 3.63549 8.77686C2.4829 9.25428 1.24756 9.5 5.28545e-07 9.5L0 19C2.49512 19 4.9658 18.5086 7.27098 17.5537C9.57617 16.5989 11.6707 15.1993 13.435 13.435C15.1993 11.6707 16.5989 9.57617 17.5537 7.27099Z" fill="white"/>
</svg>
