<svg width="54" height="30" viewBox="0 0 54 30" fill="none" xmlns="http://www.w3.org/2000/svg">
<path fill-rule="evenodd" clip-rule="evenodd" d="M26.8839 18.5192C25.4089 22.1589 24.6498 26.0599 24.6498 29.9995L39.3249 29.9995C39.3249 28.0297 39.7045 26.0792 40.442 24.2593C41.1795 22.4395 42.2604 20.7859 43.6231 19.3931C44.9858 18.0002 46.6036 16.8953 48.3841 16.1415C50.1645 15.3877 52.0728 14.9998 54 14.9998L54 0C50.1457 -1.68478e-07 46.3291 0.775959 42.7682 2.28357C39.2072 3.79119 35.9717 6.00094 33.2463 8.78665C30.5208 11.5724 28.3589 14.8795 26.8839 18.5192Z" fill="#8B714B"/>
<path fill-rule="evenodd" clip-rule="evenodd" d="M27.1161 11.4808C28.5911 7.84111 29.3502 3.94009 29.3502 0.000500083L14.6751 0.000497997C14.6751 1.97029 14.2955 3.9208 13.558 5.74066C12.8205 7.56051 11.7396 9.21407 10.3769 10.6069C9.01416 11.9998 7.39639 13.1047 5.61592 13.8585C3.83545 14.6123 1.92716 15.0002 1.74999e-07 15.0002L0 30C3.85432 30 7.67091 29.224 11.2318 27.7164C14.7928 26.2088 18.0283 23.9991 20.7537 21.2134C23.4792 18.4276 25.6411 15.1205 27.1161 11.4808Z" fill="#8B714B"/>
</svg>
