<?xml version="1.0" encoding="utf-8"?><svg viewBox="0 0 502.66 502.66" xmlns="http://www.w3.org/2000/svg" xmlns:xlink="http://www.w3.org/1999/xlink"><style>:root>svg{display:none}:root>svg:target{display:block}</style><svg viewBox="0 0 25 16" id="arrow" xmlns="http://www.w3.org/2000/svg"><path d="M18.707 8.707a1 1 0 0 0 0-1.414L12.343.929a1 1 0 1 0-1.414 1.414L16.586 8l-5.657 5.657a1 1 0 0 0 1.414 1.414l6.364-6.364ZM4 9h14V7H4v2Z"/></svg><svg viewBox="0 0 16 26" id="arrowDown" xmlns="http://www.w3.org/2000/svg"><path d="M7.293 19.207a1 1 0 0 0 1.414 0l6.364-6.364a1 1 0 0 0-1.414-1.414L8 17.086l-5.657-5.657A1 1 0 0 0 .93 12.843l6.364 6.364ZM7 4.5v14h2v-14H7Z"/></svg><svg viewBox="0 0 110 15" id="arrowRight" xmlns="http://www.w3.org/2000/svg"><path d="M109.707 8.207a1 1 0 0 0 0-1.414L103.343.429a1 1 0 1 0-1.414 1.414l5.657 5.657-5.657 5.657a1 1 0 1 0 1.414 1.414l6.364-6.364ZM0 8.5h109v-2H0v2Z"/></svg><svg viewBox="0 0 150 8" id="arrowRightLong" xmlns="http://www.w3.org/2000/svg"><path d="M149.354 4.354a.5.5 0 0 0 0-.708L146.172.464a.501.501 0 0 0-.708.708L148.293 4l-2.829 2.828a.5.5 0 0 0 .708.708l3.182-3.182ZM0 4.5h149v-1H0v1Z"/></svg><svg viewBox="0 0 50 26" id="arrowUp" xmlns="http://www.w3.org/2000/svg"><path d="M49 25 25 1 1 25"/></svg><svg viewBox="0 0 21 63" id="homeBottom" xmlns="http://www.w3.org/2000/svg"><rect x=".5" y=".5" width="20" height="62" rx="10"/></svg><svg viewBox="0 0 502.664 502.664" xml:space="preserve" id="icon" xmlns="http://www.w3.org/2000/svg"><path d="M153.821 358.226 0 274.337v-46.463l153.821-83.414v54.574L46.636 250.523l107.185 53.431v54.272zm26.273 29.358L282.103 115.08h32.227L212.084 387.584h-31.99zm168.749-29.358v-54.272l107.164-52.999-107.164-52.59v-53.927l153.821 83.522v46.183l-153.821 84.083z"/></svg><svg viewBox="0 0 160 38" id="logo" xmlns="http://www.w3.org/2000/svg"><path d="m91.612 32.263 4.452-11.686h1.299l4.452 11.686h-1.577l-1.113-2.875h-4.823l-1.113 2.875h-1.577Zm3.154-4.173h3.895l-1.947-5.102-1.948 5.102ZM80.38 32.263v-1.298h.65a3.473 3.473 0 0 0 1.298-2.319l.928-8.07h6.678v10.389h1.298v1.298H80.38Zm2.505-1.298h5.565v-9.09h-3.84l-.798 6.771a4.833 4.833 0 0 1-.538 1.744c-.13.223-.26.408-.39.575Zm-11.038 1.298V20.577h7.42v1.298H73.33v3.71h5.472v1.299H73.33v4.08h6.121v1.3h-7.605Zm-9.927 0V20.577h3.988c2.022 0 3.71 1.67 3.71 3.617 0 1.948-1.688 3.617-3.71 3.617h-2.505v4.452H61.92Zm1.483-5.75h2.505c1.206 0 2.226-1.02 2.226-2.319s-1.02-2.319-2.226-2.319h-2.505v4.638Zm-5.099 1.855h1.577c-.65 2.226-2.412 3.988-5.009 3.988-2.875 0-5.472-2.597-5.472-5.936 0-3.34 2.597-5.936 5.472-5.936 2.505 0 4.267 1.762 4.916 3.988h-1.577c-.39-1.484-1.558-2.69-3.339-2.69-2.04 0-3.988 1.948-3.988 4.638s1.948 4.638 3.988 4.638c1.874 0 3.043-1.206 3.432-2.69Zm92.94-10.945 2.968-4.916a4.108 4.108 0 0 1-1.299-.668c-.649-.5-1.298-1.317-1.298-2.67 0-1.856 1.576-3.433 3.524-3.433h4.36v11.687h-1.484V12.6h-2.208l-2.894 4.823h-1.669Zm3.895-6.121h2.876V7.035h-2.876c-1.131 0-2.04.946-2.04 2.133s.909 2.134 2.04 2.134Zm-14.651 6.121 4.452-11.687h1.299l4.452 11.687h-1.577l-1.113-2.875h-4.823l-1.113 2.875h-1.577Zm3.154-4.174h3.895l-1.947-5.101-1.948 5.101Zm-13.264 4.174V5.736h1.484v5.102h5.658V5.736h1.484v11.687h-1.484v-5.287h-5.658v5.287h-1.484Zm-6.775 0V7.035h-3.525V5.736h8.533v1.299h-3.524v10.388h-1.484Zm-12.246 0V5.736h3.988c2.022 0 3.71 1.67 3.71 3.618s-1.688 3.617-3.71 3.617h-2.504v4.452h-1.484Zm1.484-5.75h2.504c1.206 0 2.226-1.02 2.226-2.32 0-1.298-1.02-2.318-2.226-2.318h-2.504v4.637Zm-9.093-4.731c-2.04 0-3.988 1.948-3.988 4.638s1.948 4.637 3.988 4.637c2.041 0 3.989-1.947 3.989-4.637 0-2.69-1.948-4.638-3.989-4.638Zm0-1.298c2.876 0 5.473 2.597 5.473 5.936s-2.597 5.936-5.473 5.936c-2.875 0-5.472-2.597-5.472-5.936 0-3.34 2.597-5.936 5.472-5.936ZM90.211 17.516v-1.577c-3.339-.204-5.194-2.022-5.194-4.545s1.855-4.34 5.194-4.545V5.736h1.484V6.85c3.34.204 5.194 2.022 5.194 4.545s-1.855 4.341-5.194 4.545v1.577h-1.484Zm0-2.875V8.147c-2.319.093-3.71 1.465-3.71 3.246s1.391 3.154 3.71 3.246Zm1.484-6.493v6.492c2.32-.092 3.71-1.465 3.71-3.246 0-1.78-1.39-3.153-3.71-3.246Zm-20.03 9.275V5.736h1.206l4.36 9.368 4.359-9.368h1.206v11.687h-1.484V9.54l-3.618 7.884h-.927L73.15 9.54v7.884h-1.485ZM64.057 6.942c-2.04 0-3.989 1.948-3.989 4.638s1.948 4.637 3.989 4.637c2.04 0 3.988-1.947 3.988-4.637 0-2.69-1.948-4.638-3.988-4.638Zm0-1.298c2.875 0 5.472 2.597 5.472 5.936s-2.597 5.936-5.472 5.936c-2.876 0-5.473-2.597-5.473-5.936 0-3.34 2.597-5.936 5.473-5.936ZM50.235 17.423V5.736h1.484v5.751l4.545-5.75h1.762l-4.545 5.75 4.916 5.936h-1.762l-4.916-5.936v5.936h-1.484Z"/><path fill-rule="evenodd" clip-rule="evenodd" d="M27.686 36.554A19 19 0 0 0 34.957 38v-9.5a9.5 9.5 0 0 1-9.5-9.5h-9.5a19 19 0 0 0 11.729 17.554ZM17.403 11.729A19 19 0 0 0 15.957 19h9.5a9.5 9.5 0 0 1 9.5-9.5V0a19 19 0 0 0-17.554 11.729ZM7.271 20.446A19 19 0 0 0 0 19v9.5A9.5 9.5 0 0 1 9.5 38H19A19 19 0 0 0 7.271 20.446Z"/><path fill-rule="evenodd" clip-rule="evenodd" d="M17.554 7.271A18.999 18.999 0 0 0 19 0H9.5A9.5 9.5 0 0 1 0 9.5V19A18.999 18.999 0 0 0 17.554 7.271Z"/></svg><svg viewBox="0 0 410 446" id="logoBig" xmlns="http://www.w3.org/2000/svg"><path fill-rule="evenodd" clip-rule="evenodd" d="M324.722 428.724A222.838 222.838 0 0 0 410 445.687V334.265a111.415 111.415 0 0 1-102.94-68.783 111.41 111.41 0 0 1-8.482-42.639H187.156a222.847 222.847 0 0 0 137.566 205.881Z"/><path fill-rule="evenodd" clip-rule="evenodd" d="M204.119 137.565a222.847 222.847 0 0 0-16.963 85.279h111.422a111.428 111.428 0 0 1 32.635-78.787 111.394 111.394 0 0 1 36.148-24.153A111.41 111.41 0 0 1 410 111.422V0a222.848 222.848 0 0 0-205.881 137.565ZM85.279 239.809A222.843 222.843 0 0 0 0 222.846v111.422a111.413 111.413 0 0 1 78.787 32.635 111.428 111.428 0 0 1 32.635 78.787h111.422a222.838 222.838 0 0 0-65.269-157.574 222.843 222.843 0 0 0-72.296-48.307ZM205.881 85.28A222.844 222.844 0 0 0 222.844.001H111.422A111.43 111.43 0 0 1 78.787 78.79 111.427 111.427 0 0 1 0 111.422v111.422A222.843 222.843 0 0 0 205.881 85.28Z"/></svg><svg viewBox="0 0 110 120" id="logoQuarter" xmlns="http://www.w3.org/2000/svg"><path fill-rule="evenodd" clip-rule="evenodd" d="M87.12 115.024a59.779 59.779 0 0 0 22.88 4.551V89.681a29.893 29.893 0 0 1-29.894-29.893H50.212a59.788 59.788 0 0 0 36.908 55.236ZM82.382 48.348a29.893 29.893 0 0 0-2.276 11.44h29.681H50A59.786 59.786 0 0 1 109.788 0v29.894a29.895 29.895 0 0 0-27.406 18.454Zm27.406-18.454H110v29.893h-.213l.001-29.893ZM22.88 64.339A59.788 59.788 0 0 0 0 59.788V89.68a29.894 29.894 0 0 1 29.894 29.894h29.894A59.787 59.787 0 0 0 22.88 64.339ZM55.236 22.88A59.788 59.788 0 0 0 59.788 0H29.894A29.894 29.894 0 0 1 0 29.894v29.894A59.788 59.788 0 0 0 55.236 22.88Z"/></svg><svg viewBox="0 0 21 22" id="logoSmall" xmlns="http://www.w3.org/2000/svg"><path fill-rule="evenodd" clip-rule="evenodd" d="M16.186 21.16c1.286.533 2.665.807 4.058.807v-5.302a5.304 5.304 0 0 1-5.303-5.303H9.64a10.605 10.605 0 0 0 6.547 9.798Z"/><path fill-rule="evenodd" clip-rule="evenodd" d="M10.446 7.303a10.605 10.605 0 0 0-.807 4.059h5.303a5.302 5.302 0 0 1 5.302-5.303V.757a10.605 10.605 0 0 0-9.798 6.546Zm-5.655 4.866a10.607 10.607 0 0 0-4.058-.808v5.303a5.302 5.302 0 0 1 5.302 5.303h5.303a10.605 10.605 0 0 0-6.547-9.798Z"/><path fill-rule="evenodd" clip-rule="evenodd" d="M10.53 4.815c.533-1.287.807-2.666.807-4.058H6.035A5.303 5.303 0 0 1 .732 6.059v5.303a10.607 10.607 0 0 0 9.798-6.547Z"/></svg><svg viewBox="0 0 54 30" id="quote" xmlns="http://www.w3.org/2000/svg"><path fill-rule="evenodd" clip-rule="evenodd" d="M26.884 18.52A30.576 30.576 0 0 0 24.65 30h14.675c0-1.97.38-3.92 1.117-5.74a15.026 15.026 0 0 1 3.181-4.867 14.657 14.657 0 0 1 4.761-3.252A14.4 14.4 0 0 1 54 15V0a28.8 28.8 0 0 0-11.232 2.284 29.315 29.315 0 0 0-9.522 6.503 30.052 30.052 0 0 0-6.362 9.732Zm.232-7.04A30.576 30.576 0 0 0 29.35 0H14.675c0 1.97-.38 3.92-1.117 5.74a15.026 15.026 0 0 1-3.181 4.867 14.658 14.658 0 0 1-4.761 3.252A14.4 14.4 0 0 1 0 15v15a28.8 28.8 0 0 0 11.232-2.284 29.315 29.315 0 0 0 9.522-6.503 30.053 30.053 0 0 0 6.362-9.732Z"/></svg><svg viewBox="0 0 26 22" id="tg" xmlns="http://www.w3.org/2000/svg"><path fill-rule="evenodd" clip-rule="evenodd" d="M1.78 9.488C8.758 6.393 13.403 4.337 15.736 3.34 22.375.51 23.77.02 24.668 0c.199 0 .638.04.937.285.239.204.299.468.339.672.04.204.08.631.04.957-.36 3.869-1.914 13.255-2.712 17.572-.339 1.832-.997 2.443-1.635 2.504-1.395.123-2.452-.936-3.788-1.832-2.113-1.405-3.29-2.28-5.343-3.665-2.372-1.588-.837-2.464.519-3.89.358-.366 6.479-6.067 6.599-6.576.02-.061.02-.305-.12-.428-.14-.122-.339-.081-.498-.04-.22.04-3.57 2.32-10.088 6.82-.957.673-1.815.998-2.592.978-.857-.02-2.492-.489-3.728-.896-1.496-.489-2.692-.753-2.592-1.608.06-.448.658-.896 1.774-1.365Z"/></svg><svg viewBox="0 0 31 19" id="vk" xmlns="http://www.w3.org/2000/svg"><path d="M16.884 19C6.293 19 .252 11.868 0 0h5.305c.175 8.71 4.086 12.4 7.184 13.161V0h4.996v7.512c3.06-.323 6.273-3.746 7.357-7.512h4.996c-.833 4.64-4.318 8.064-6.796 9.471C25.52 10.613 29.49 13.6 31 19h-5.5c-1.18-3.614-4.123-6.41-8.015-6.79V19h-.6Z"/></svg></svg>