<?xml version="1.0" encoding="utf-8"?><svg viewBox="0 0 502.66 502.66" xmlns="http://www.w3.org/2000/svg" xmlns:xlink="http://www.w3.org/1999/xlink"><style>:root>svg{display:none}:root>svg:target{display:block}</style><svg viewBox="0 0 21 63" id="homeBottom" xmlns="http://www.w3.org/2000/svg"><rect x=".5" y=".5" width="20" height="62" rx="10"/></svg><svg viewBox="0 0 502.664 502.664" xml:space="preserve" id="icon" xmlns="http://www.w3.org/2000/svg"><path d="M153.821 358.226 0 274.337v-46.463l153.821-83.414v54.574L46.636 250.523l107.185 53.431v54.272zm26.273 29.358L282.103 115.08h32.227L212.084 387.584h-31.99zm168.749-29.358v-54.272l107.164-52.999-107.164-52.59v-53.927l153.821 83.522v46.183l-153.821 84.083z"/></svg><svg viewBox="0 0 26 22" id="tg" xmlns="http://www.w3.org/2000/svg"><path fill-rule="evenodd" clip-rule="evenodd" d="M1.78 9.488C8.758 6.393 13.403 4.337 15.736 3.34 22.375.51 23.77.02 24.668 0c.199 0 .638.04.937.285.239.204.299.468.339.672.04.204.08.631.04.957-.36 3.869-1.914 13.255-2.712 17.572-.339 1.832-.997 2.443-1.635 2.504-1.395.123-2.452-.936-3.788-1.832-2.113-1.405-3.29-2.28-5.343-3.665-2.372-1.588-.837-2.464.519-3.89.358-.366 6.479-6.067 6.599-6.576.02-.061.02-.305-.12-.428-.14-.122-.339-.081-.498-.04-.22.04-3.57 2.32-10.088 6.82-.957.673-1.815.998-2.592.978-.857-.02-2.492-.489-3.728-.896-1.496-.489-2.692-.753-2.592-1.608.06-.448.658-.896 1.774-1.365Z"/></svg><svg viewBox="0 0 31 19" id="vk" xmlns="http://www.w3.org/2000/svg"><path d="M16.884 19C6.293 19 .252 11.868 0 0h5.305c.175 8.71 4.086 12.4 7.184 13.161V0h4.996v7.512c3.06-.323 6.273-3.746 7.357-7.512h4.996c-.833 4.64-4.318 8.064-6.796 9.471C25.52 10.613 29.49 13.6 31 19h-5.5c-1.18-3.614-4.123-6.41-8.015-6.79V19h-.6Z"/></svg></svg>