<svg width="21" height="22" viewBox="0 0 21 22" fill="none" xmlns="http://www.w3.org/2000/svg">
<path fill-rule="evenodd" clip-rule="evenodd" d="M16.1855 21.1599C17.4722 21.6929 18.8513 21.9672 20.244 21.9672V16.6645C19.5477 16.6645 18.8581 16.5273 18.2148 16.2609C17.5714 15.9944 16.9869 15.6038 16.4945 15.1114C16.0021 14.619 15.6115 14.0344 15.345 13.3911C15.0785 12.7477 14.9413 12.0582 14.9413 11.3618L9.63867 11.3618C9.63867 12.7545 9.91299 14.1336 10.446 15.4203C10.9789 16.707 11.7601 17.8761 12.7449 18.8609C13.7297 19.8457 14.8988 20.6269 16.1855 21.1599Z" fill="#977C53"/>
<path fill-rule="evenodd" clip-rule="evenodd" d="M10.4461 7.30345C9.9131 8.59015 9.63878 9.96923 9.63878 11.3619L14.9415 11.3619C14.9415 10.6656 15.0786 9.97605 15.3451 9.3327C15.6116 8.68935 16.0022 8.10479 16.4946 7.61239C16.987 7.11999 17.5715 6.7294 18.2149 6.46291C18.8582 6.19643 19.5478 6.05927 20.2441 6.05927L20.2441 0.756592C18.8514 0.756592 17.4723 1.03091 16.1856 1.56388C14.8989 2.09684 13.7298 2.87803 12.745 3.86283C11.7602 4.84762 10.979 6.01675 10.4461 7.30345Z" fill="#977C53"/>
<path fill-rule="evenodd" clip-rule="evenodd" d="M4.79103 12.1687C3.50433 11.6358 2.12525 11.3614 0.732535 11.3614L0.732536 16.6641C1.42889 16.6641 2.11843 16.8013 2.76178 17.0678C3.40513 17.3342 3.9897 17.7248 4.4821 18.2172C4.97449 18.7096 5.36509 19.2942 5.63157 19.9376C5.89806 20.5809 6.03521 21.2704 6.03521 21.9668L11.3379 21.9668C11.3379 20.5741 11.0636 19.195 10.5306 17.9083C9.99764 16.6216 9.21645 15.4525 8.23165 14.4677C7.24686 13.4829 6.07773 12.7017 4.79103 12.1687Z" fill="#977C53"/>
<path fill-rule="evenodd" clip-rule="evenodd" d="M10.53 4.8152C11.063 3.5285 11.3373 2.14942 11.3373 0.756706L6.03461 0.756706C6.03461 1.45306 5.89745 2.1426 5.63097 2.78595C5.36449 3.4293 4.97389 4.01387 4.48149 4.50627C3.9891 4.99866 3.40453 5.38926 2.76118 5.65574C2.11783 5.92223 1.42829 6.05938 0.731934 6.05938L0.731934 11.3621C2.12465 11.3621 3.50373 11.0877 4.79043 10.5548C6.07713 10.0218 7.24625 9.24062 8.23105 8.25583C9.21585 7.27103 9.99704 6.1019 10.53 4.8152Z" fill="#977C53"/>
</svg>
