<svg width="26" height="22" viewBox="0 0 26 22" fill="none" xmlns="http://www.w3.org/2000/svg">
<path fill-rule="evenodd" clip-rule="evenodd" d="M1.78019 9.48842C8.75807 6.39349 13.4034 4.33698 15.736 3.33927C22.3749 0.509036 23.7705 0.0203614 24.6677 0C24.867 0 25.3056 0.0407231 25.6047 0.28506C25.8439 0.488674 25.9037 0.753373 25.9436 0.956987C25.9835 1.1606 26.0234 1.58819 25.9835 1.91397C25.6246 5.78264 24.0696 15.1693 23.2721 19.4859C22.9332 21.3184 22.2752 21.9292 21.6373 21.9903C20.2417 22.1125 19.185 21.0537 17.8493 20.1578C15.736 18.7529 14.5597 17.8773 12.5062 16.4927C10.1337 14.9046 11.6688 14.029 13.0246 12.6037C13.3834 12.2372 19.504 6.53602 19.6236 6.02698C19.6436 5.9659 19.6436 5.72156 19.504 5.59939C19.3645 5.47722 19.1651 5.51794 19.0056 5.55867C18.7863 5.59939 15.4369 7.87987 8.91757 12.3797C7.9606 13.0517 7.10332 13.3774 6.32578 13.3571C5.4685 13.3367 3.83368 12.8684 2.5976 12.4612C1.10233 11.9725 -0.0938751 11.7078 0.00580902 10.8526C0.0656195 10.4047 0.663724 9.95673 1.78019 9.48842Z" fill="white"/>
</svg>
